<?xml version="1.0" encoding="UTF-8"?>
<!DOCTYPE svg PUBLIC "-//W3C//DTD SVG 1.1//EN" "http://www.w3.org/Graphics/SVG/1.1/DTD/svg11.dtd">
<svg xmlns="http://www.w3.org/2000/svg" version="1.1" width="579px" height="643px" style="shape-rendering:geometricPrecision; text-rendering:geometricPrecision; image-rendering:optimizeQuality; fill-rule:evenodd; clip-rule:evenodd" xmlns:xlink="http://www.w3.org/1999/xlink">
<g><path style="opacity:0.127" fill="#010101" d="M 264.5,27.5 C 337.377,19.9591 403.044,37.6258 461.5,80.5C 476.429,93.9268 490.929,107.927 505,122.5C 564.688,197.335 581.688,281.335 556,374.5C 553.048,382.07 550.381,389.737 548,397.5C 535.771,423.859 520.771,448.525 503,471.5C 473.658,505.18 442.491,537.347 409.5,568C 389.11,584.376 367.444,599.043 344.5,612C 337.818,614.117 331.151,616.45 324.5,619C 299.365,624.25 275.032,621.917 251.5,612C 241.974,607.073 232.641,601.906 223.5,596.5C 208.05,584.927 192.717,573.094 177.5,561C 156.667,540.167 135.833,519.333 115,498.5C 93.9096,475 75.2429,449.667 59,422.5C 26.7301,360.246 19.0635,294.913 36,226.5C 46.551,189.471 63.551,155.805 87,125.5C 100.5,113.333 113.333,100.5 125.5,87C 166.137,54.2739 212.471,34.4405 264.5,27.5 Z"/></g>
<g><path style="opacity:0.999" fill="#fdfdfd" d="M 51.5,315.5 C 51.3831,307.147 50.8831,298.813 50,290.5C 49.6174,291.056 49.1174,291.389 48.5,291.5C 48.5,282.5 48.5,273.5 48.5,264.5C 50.4563,258.588 51.1229,252.255 50.5,245.5C 56.6971,200.382 73.8638,160.049 102,124.5C 112.208,113.964 122.375,103.63 132.5,93.5C 135.873,90.8225 139.206,88.1558 142.5,85.5C 150.19,80.1341 157.857,74.8007 165.5,69.5C 231.468,32.3964 300.468,25.8964 372.5,50C 446.47,79.631 495.97,132.131 521,207.5C 542.782,289.344 528.115,363.677 477,430.5C 449.911,462.924 420.744,493.424 389.5,522C 368.671,540.825 345.671,556.491 320.5,569C 303.958,576.024 286.958,577.357 269.5,573C 253.001,567.085 237.668,559.085 223.5,549C 172.951,509.784 128.451,464.617 90,413.5C 75.0205,390.909 63.6872,366.576 56,340.5C 54.3362,332.182 52.8362,323.849 51.5,315.5 Z"/></g>
<g><path style="opacity:1" fill="#e15640" d="M 489.5,249.5 C 490.337,264.817 490.671,280.151 490.5,295.5C 483.222,360.576 452.556,411.409 398.5,448C 339.575,483.288 277.908,488.954 213.5,465C 141.113,432.261 99.6134,376.427 89,297.5C 83.6607,221.695 110.827,160.528 170.5,114C 228.258,74.7962 290.591,65.7962 357.5,87C 431.9,116.559 475.9,170.725 489.5,249.5 Z"/></g>
<g><path style="opacity:1" fill="#fefdfd" d="M 194.5,196.5 C 204.984,195.93 215.317,195.264 225.5,194.5C 231.134,182.037 240.467,173.537 253.5,169C 274.782,167.379 296.116,167.045 317.5,168C 333.302,170.303 344.302,178.803 350.5,193.5C 359.816,194.332 369.149,194.832 378.5,195C 395.435,199.601 405.935,210.435 410,227.5C 410.667,267.833 410.667,308.167 410,348.5C 406.404,368.429 394.57,379.929 374.5,383C 316.167,383.667 257.833,383.667 199.5,383C 181.112,378.612 170.279,367.112 167,348.5C 166.333,308.167 166.333,267.833 167,227.5C 170.371,211.965 179.538,201.632 194.5,196.5 Z"/></g>
<g><path style="opacity:1" fill="#f7cfc8" d="M 225.5,194.5 C 215.317,195.264 204.984,195.93 194.5,196.5C 195.263,195.732 196.263,195.232 197.5,195C 206.827,194.5 216.161,194.334 225.5,194.5 Z"/></g>
<g><path style="opacity:1" fill="#e15741" d="M 259.5,194.5 C 278.503,194.333 297.503,194.5 316.5,195C 319.022,195.957 321.189,197.457 323,199.5C 326.961,206.587 330.794,213.754 334.5,221C 347.167,221.333 359.833,221.667 372.5,222C 376.468,222.964 379.635,225.131 382,228.5C 383.654,267.416 383.988,306.416 383,345.5C 381.65,350.185 378.817,353.685 374.5,356C 317.167,356.667 259.833,356.667 202.5,356C 198.183,353.685 195.35,350.185 194,345.5C 193.333,307.167 193.333,268.833 194,230.5C 196.167,227 199,224.167 202.5,222C 215.833,221.667 229.167,221.333 242.5,221C 246.206,213.754 250.039,206.587 254,199.5C 255.812,197.7 257.645,196.033 259.5,194.5 Z"/></g>
<g><path style="opacity:1" fill="#fefdfc" d="M 339.5,270.5 C 340.509,275.283 341.509,279.95 342.5,284.5C 342.563,289.203 342.229,293.87 341.5,298.5C 334.556,326.78 316.556,341.447 287.5,342.5C 267.024,342.176 251.524,333.176 241,315.5C 238.66,309.981 236.827,304.315 235.5,298.5C 234.771,293.87 234.437,289.203 234.5,284.5C 235.491,279.95 236.491,275.283 237.5,270.5C 246.756,248.102 263.589,236.102 288,234.5C 306.599,235.299 321.599,242.965 333,257.5C 335.705,261.577 337.872,265.91 339.5,270.5 Z"/></g>
<g><path style="opacity:0.826" fill="#c9c9c9" d="M 50.5,245.5 C 51.1229,252.255 50.4563,258.588 48.5,264.5C 48.3369,257.938 49.0035,251.605 50.5,245.5 Z"/></g>
<g><path style="opacity:1" fill="#e15741" d="M 281.5,262.5 C 297.521,260.424 308.687,266.757 315,281.5C 317.637,298.067 311.137,309.233 295.5,315C 278.931,317.762 267.764,311.262 262,295.5C 259.805,279.208 266.305,268.208 281.5,262.5 Z"/></g>
<g><path style="opacity:1" fill="#f3b5aa" d="M 237.5,270.5 C 236.491,275.283 235.491,279.95 234.5,284.5C 234.5,283.5 234.5,282.5 234.5,281.5C 234.517,277.466 235.517,273.799 237.5,270.5 Z"/></g>
<g><path style="opacity:1" fill="#f3b4aa" d="M 339.5,270.5 C 341.483,273.799 342.483,277.466 342.5,281.5C 342.5,282.5 342.5,283.5 342.5,284.5C 341.509,279.95 340.509,275.283 339.5,270.5 Z"/></g>
<g><path style="opacity:1" fill="#e98271" d="M 489.5,249.5 C 491.028,258.281 491.695,267.281 491.5,276.5C 491.5,283.009 491.166,289.342 490.5,295.5C 490.671,280.151 490.337,264.817 489.5,249.5 Z"/></g>
<g><path style="opacity:1" fill="#e98372" d="M 234.5,281.5 C 234.5,282.5 234.5,283.5 234.5,284.5C 234.437,289.203 234.771,293.87 235.5,298.5C 233.981,295.474 233.315,292.141 233.5,288.5C 233.503,285.975 233.837,283.641 234.5,281.5 Z"/></g>
<g><path style="opacity:1" fill="#e98372" d="M 342.5,281.5 C 343.163,283.641 343.497,285.975 343.5,288.5C 343.685,292.141 343.019,295.474 341.5,298.5C 342.229,293.87 342.563,289.203 342.5,284.5C 342.5,283.5 342.5,282.5 342.5,281.5 Z"/></g>
<g><path style="opacity:0.831" fill="#cacaca" d="M 51.5,315.5 C 49.532,307.757 48.532,299.757 48.5,291.5C 49.1174,291.389 49.6174,291.056 50,290.5C 50.8831,298.813 51.3831,307.147 51.5,315.5 Z"/></g>
</svg>
