<?xml version="1.0" encoding="UTF-8"?>
<!DOCTYPE svg PUBLIC "-//W3C//DTD SVG 1.1//EN" "http://www.w3.org/Graphics/SVG/1.1/DTD/svg11.dtd">
<svg xmlns="http://www.w3.org/2000/svg" version="1.1" width="579px" height="643px" style="shape-rendering:geometricPrecision; text-rendering:geometricPrecision; image-rendering:optimizeQuality; fill-rule:evenodd; clip-rule:evenodd" xmlns:xlink="http://www.w3.org/1999/xlink">
<g><path style="opacity:0.127" fill="#010101" d="M 264.5,27.5 C 337.377,19.9591 403.044,37.6258 461.5,80.5C 476.429,93.9268 490.929,107.927 505,122.5C 564.688,197.335 581.688,281.335 556,374.5C 553.048,382.07 550.381,389.737 548,397.5C 535.771,423.859 520.771,448.525 503,471.5C 473.658,505.18 442.491,537.347 409.5,568C 389.11,584.376 367.444,599.043 344.5,612C 337.818,614.117 331.151,616.45 324.5,619C 299.365,624.25 275.032,621.917 251.5,612C 241.974,607.073 232.641,601.906 223.5,596.5C 208.05,584.927 192.717,573.094 177.5,561C 156.667,540.167 135.833,519.333 115,498.5C 93.9096,475 75.2429,449.667 59,422.5C 26.7301,360.246 19.0635,294.913 36,226.5C 46.551,189.471 63.551,155.805 87,125.5C 100.5,113.333 113.333,100.5 125.5,87C 166.137,54.2739 212.471,34.4405 264.5,27.5 Z"/></g>
<g><path style="opacity:0.999" fill="#fdfdfd" d="M 51.5,315.5 C 50.8337,302.837 50.167,290.17 49.5,277.5C 50.0436,266.838 50.377,256.172 50.5,245.5C 56.6971,200.382 73.8638,160.049 102,124.5C 112.208,113.964 122.375,103.63 132.5,93.5C 135.873,90.8225 139.206,88.1558 142.5,85.5C 150.19,80.1341 157.857,74.8007 165.5,69.5C 231.468,32.3964 300.468,25.8964 372.5,50C 446.47,79.631 495.97,132.131 521,207.5C 542.782,289.344 528.115,363.677 477,430.5C 449.911,462.924 420.744,493.424 389.5,522C 368.671,540.825 345.671,556.491 320.5,569C 303.958,576.024 286.958,577.357 269.5,573C 253.001,567.085 237.668,559.085 223.5,549C 172.951,509.784 128.451,464.617 90,413.5C 75.0205,390.909 63.6872,366.576 56,340.5C 54.3362,332.182 52.8362,323.849 51.5,315.5 Z"/></g>
<g><path style="opacity:1" fill="#e15640" d="M 489.5,249.5 C 490.337,264.817 490.671,280.151 490.5,295.5C 483.218,360.584 452.551,411.418 398.5,448C 339.575,483.288 277.908,488.954 213.5,465C 141.113,432.261 99.6134,376.427 89,297.5C 83.6607,221.695 110.827,160.528 170.5,114C 228.258,74.7962 290.591,65.7962 357.5,87C 431.9,116.559 475.9,170.725 489.5,249.5 Z"/></g>
<g><path style="opacity:1" fill="#e98271" d="M 489.5,249.5 C 491.028,258.281 491.695,267.281 491.5,276.5C 491.5,283.009 491.166,289.342 490.5,295.5C 490.671,280.151 490.337,264.817 489.5,249.5 Z"/></g>
<g><path style="opacity:0.831" fill="#bfbfbf" d="M 50.5,245.5 C 50.377,256.172 50.0436,266.838 49.5,277.5C 50.167,290.17 50.8337,302.837 51.5,315.5C 46.6356,292.226 46.3023,268.893 50.5,245.5 Z"/></g>
</svg>
