<?xml version="1.0" encoding="UTF-8"?>
<!DOCTYPE svg PUBLIC "-//W3C//DTD SVG 1.1//EN" "http://www.w3.org/Graphics/SVG/1.1/DTD/svg11.dtd">
<svg xmlns="http://www.w3.org/2000/svg" version="1.1" width="579px" height="643px" style="shape-rendering:geometricPrecision; text-rendering:geometricPrecision; image-rendering:optimizeQuality; fill-rule:evenodd; clip-rule:evenodd" xmlns:xlink="http://www.w3.org/1999/xlink">
<g><path style="opacity:0.127" fill="#010101" d="M 264.5,27.5 C 337.377,19.9591 403.044,37.6258 461.5,80.5C 476.429,93.9268 490.929,107.927 505,122.5C 564.688,197.335 581.688,281.335 556,374.5C 553.048,382.07 550.381,389.737 548,397.5C 535.771,423.859 520.771,448.525 503,471.5C 473.658,505.18 442.491,537.347 409.5,568C 389.11,584.376 367.444,599.043 344.5,612C 337.818,614.117 331.151,616.45 324.5,619C 299.365,624.25 275.032,621.917 251.5,612C 241.974,607.073 232.641,601.906 223.5,596.5C 208.05,584.927 192.717,573.094 177.5,561C 156.667,540.167 135.833,519.333 115,498.5C 93.9096,475 75.2429,449.667 59,422.5C 26.7301,360.246 19.0635,294.913 36,226.5C 46.551,189.471 63.551,155.805 87,125.5C 100.5,113.333 113.333,100.5 125.5,87C 166.137,54.2739 212.471,34.4405 264.5,27.5 Z"/></g>
<g><path style="opacity:0.999" fill="#fdfdfd" d="M 51.5,315.5 C 51.3831,307.147 50.8831,298.813 50,290.5C 49.6174,291.056 49.1174,291.389 48.5,291.5C 48.5,282.5 48.5,273.5 48.5,264.5C 50.4563,258.588 51.1229,252.255 50.5,245.5C 56.6971,200.382 73.8638,160.049 102,124.5C 112.208,113.964 122.375,103.63 132.5,93.5C 135.873,90.8225 139.206,88.1558 142.5,85.5C 150.19,80.1341 157.857,74.8007 165.5,69.5C 231.468,32.3964 300.468,25.8964 372.5,50C 446.47,79.631 495.97,132.131 521,207.5C 542.782,289.344 528.115,363.677 477,430.5C 449.911,462.924 420.744,493.424 389.5,522C 368.671,540.825 345.671,556.491 320.5,569C 303.958,576.024 286.958,577.357 269.5,573C 253.001,567.085 237.668,559.085 223.5,549C 172.951,509.784 128.451,464.617 90,413.5C 75.0205,390.909 63.6872,366.576 56,340.5C 54.3362,332.182 52.8362,323.849 51.5,315.5 Z"/></g>
<g><path style="opacity:1" fill="#e15640" d="M 489.5,249.5 C 490.337,264.817 490.671,280.151 490.5,295.5C 483.218,360.584 452.551,411.418 398.5,448C 339.575,483.288 277.908,488.954 213.5,465C 141.113,432.261 99.6134,376.427 89,297.5C 83.6607,221.695 110.827,160.528 170.5,114C 228.258,74.7962 290.591,65.7962 357.5,87C 431.9,116.559 475.9,170.725 489.5,249.5 Z"/></g>
<g><path style="opacity:1" fill="#e36551" d="M 181.5,198.5 C 181.167,198.5 180.833,198.5 180.5,198.5C 172.735,197.188 165.068,197.188 157.5,198.5C 156.167,226.992 155.5,255.826 155.5,285C 155.5,314.002 155.833,342.835 156.5,371.5C 156.5,372.5 156.5,373.5 156.5,374.5C 164.174,374.666 171.841,374.5 179.5,374C 180.252,373.329 180.586,372.496 180.5,371.5C 180.833,371.5 181.167,371.5 181.5,371.5C 181.67,372.822 181.337,373.989 180.5,375C 171.588,375.816 162.755,375.65 154,374.5C 153.178,314.805 153.345,255.138 154.5,195.5C 163.5,195.5 172.5,195.5 181.5,195.5C 181.5,196.5 181.5,197.5 181.5,198.5 Z"/></g>
<g><path style="opacity:1" fill="#fefefe" d="M 179.5,200.5 C 179.168,236.671 179.502,272.671 180.5,308.5C 212.167,308.5 243.833,308.5 275.5,308.5C 276.5,308.5 277.5,308.5 278.5,308.5C 278.172,280.926 278.505,253.426 279.5,226C 320.51,225.226 361.51,225.392 402.5,226.5C 402.5,227.5 402.5,228.5 402.5,229.5C 404.292,229.366 405.958,229.699 407.5,230.5C 410.147,230.929 412.147,232.262 413.5,234.5C 416.686,239.361 419.186,244.695 421,250.5C 421.5,280.832 421.667,311.165 421.5,341.5C 420.506,350.986 420.173,360.652 420.5,370.5C 413.833,370.5 407.167,370.5 400.5,370.5C 400.821,358.919 400.488,347.419 399.5,336C 326.167,335.5 252.834,335.333 179.5,335.5C 179.5,347.167 179.5,358.833 179.5,370.5C 172.5,370.5 165.5,370.5 158.5,370.5C 158.5,313.833 158.5,257.167 158.5,200.5C 165.5,200.5 172.5,200.5 179.5,200.5 Z"/></g>
<g><path style="opacity:1" fill="#ea8a7b" d="M 157.5,198.5 C 157.5,198.833 157.5,199.167 157.5,199.5C 156.501,256.664 156.168,313.998 156.5,371.5C 155.833,342.835 155.5,314.002 155.5,285C 155.5,255.826 156.167,226.992 157.5,198.5 Z"/></g>
<g><path style="opacity:1" fill="#f9dad5" d="M 157.5,199.5 C 165.019,199.175 172.352,199.508 179.5,200.5C 172.5,200.5 165.5,200.5 158.5,200.5C 158.5,257.167 158.5,313.833 158.5,370.5C 165.5,370.5 172.5,370.5 179.5,370.5C 179.5,370.833 179.5,371.167 179.5,371.5C 171.932,372.812 164.265,372.812 156.5,371.5C 156.168,313.998 156.501,256.664 157.5,199.5 Z"/></g>
<g><path style="opacity:1" fill="#f2b9b0" d="M 180.5,198.5 C 180.5,235.167 180.5,271.833 180.5,308.5C 179.502,272.671 179.168,236.671 179.5,200.5C 172.352,199.508 165.019,199.175 157.5,199.5C 157.5,199.167 157.5,198.833 157.5,198.5C 165.068,197.188 172.735,197.188 180.5,198.5 Z"/></g>
<g><path style="opacity:1" fill="#ea8a7a" d="M 275.5,222.5 C 314.998,221.335 354.665,221.169 394.5,222C 398.062,223.261 401.729,224.094 405.5,224.5C 405.5,225.5 405.5,226.5 405.5,227.5C 412.076,229.742 416.743,234.075 419.5,240.5C 417.333,238.67 415.333,236.67 413.5,234.5C 412.147,232.262 410.147,230.929 407.5,230.5C 406.412,229 405.079,227.667 403.5,226.5C 399.789,225.605 396.122,224.605 392.5,223.5C 353.67,222.501 314.67,222.168 275.5,222.5 Z"/></g>
<g><path style="opacity:1" fill="#f3bcb3" d="M 275.5,222.5 C 314.67,222.168 353.67,222.501 392.5,223.5C 353.833,223.5 315.167,223.5 276.5,223.5C 276.831,251.672 276.498,279.672 275.5,307.5C 275.5,279.167 275.5,250.833 275.5,222.5 Z"/></g>
<g><path style="opacity:1" fill="#fbebe9" d="M 392.5,223.5 C 396.122,224.605 399.789,225.605 403.5,226.5C 405.079,227.667 406.412,229 407.5,230.5C 405.958,229.699 404.292,229.366 402.5,229.5C 402.5,228.5 402.5,227.5 402.5,226.5C 361.51,225.392 320.51,225.226 279.5,226C 278.505,253.426 278.172,280.926 278.5,308.5C 277.5,308.5 276.5,308.5 275.5,308.5C 275.5,308.167 275.5,307.833 275.5,307.5C 276.498,279.672 276.831,251.672 276.5,223.5C 315.167,223.5 353.833,223.5 392.5,223.5 Z"/></g>
<g><path style="opacity:0.826" fill="#c9c9c9" d="M 50.5,245.5 C 51.1229,252.255 50.4563,258.588 48.5,264.5C 48.3369,257.938 49.0035,251.605 50.5,245.5 Z"/></g>
<g><path style="opacity:1" fill="#f4c4bd" d="M 413.5,234.5 C 415.333,236.67 417.333,238.67 419.5,240.5C 419.46,243.425 420.293,246.091 422,248.5C 422.5,289.499 422.667,330.499 422.5,371.5C 422.167,371.5 421.833,371.5 421.5,371.5C 421.5,361.5 421.5,351.5 421.5,341.5C 421.667,311.165 421.5,280.832 421,250.5C 419.186,244.695 416.686,239.361 413.5,234.5 Z"/></g>
<g><path style="opacity:1" fill="#e98271" d="M 489.5,249.5 C 491.028,258.281 491.695,267.281 491.5,276.5C 491.5,283.009 491.166,289.342 490.5,295.5C 490.671,280.151 490.337,264.817 489.5,249.5 Z"/></g>
<g><path style="opacity:0.831" fill="#cacaca" d="M 51.5,315.5 C 49.532,307.757 48.532,299.757 48.5,291.5C 49.1174,291.389 49.6174,291.056 50,290.5C 50.8831,298.813 51.3831,307.147 51.5,315.5 Z"/></g>
<g><path style="opacity:1" fill="#e98272" d="M 180.5,198.5 C 180.833,198.5 181.167,198.5 181.5,198.5C 181.5,234.833 181.5,271.167 181.5,307.5C 212.5,307.5 243.5,307.5 274.5,307.5C 274.169,278.995 274.502,250.662 275.5,222.5C 275.5,250.833 275.5,279.167 275.5,307.5C 275.5,307.833 275.5,308.167 275.5,308.5C 243.833,308.5 212.167,308.5 180.5,308.5C 180.5,271.833 180.5,235.167 180.5,198.5 Z"/></g>
<g><path style="opacity:1" fill="#ed988a" d="M 208.5,236.5 C 207.473,238.194 206.139,239.527 204.5,240.5C 197.711,248.84 195.544,258.507 198,269.5C 199,271.833 200,274.167 201,276.5C 205.714,281.562 211.214,285.395 217.5,288C 225.267,289.397 232.6,288.397 239.5,285C 242.062,281.602 245.062,278.769 248.5,276.5C 243.824,286.449 235.824,291.116 224.5,290.5C 214.601,289.475 206.434,285.141 200,277.5C 192.015,263.714 193.182,250.88 203.5,239C 205.078,237.906 206.745,237.072 208.5,236.5 Z"/></g>
<g><path style="opacity:1" fill="#f4b9af" d="M 240.5,236.5 C 243.771,238.591 246.937,240.924 250,243.5C 251.275,247.471 252.609,251.471 254,255.5C 254.667,259.167 254.667,262.833 254,266.5C 253.8,268.32 252.966,269.653 251.5,270.5C 251.666,263.825 251.5,257.158 251,250.5C 248.466,245.129 244.966,240.463 240.5,236.5 Z"/></g>
<g><path style="opacity:1" fill="#f6c8c0" d="M 233.5,234.5 C 227.158,234.334 220.825,234.5 214.5,235C 212.167,236.667 209.833,238.333 207.5,240C 206.552,240.483 205.552,240.649 204.5,240.5C 206.139,239.527 207.473,238.194 208.5,236.5C 210.503,234.018 213.169,233.018 216.5,233.5C 219.483,233.102 222.483,232.768 225.5,232.5C 228.486,232.382 231.152,233.048 233.5,234.5 Z"/></g>
<g><path style="opacity:1" fill="#fefdfc" d="M 233.5,234.5 C 234.833,234.5 236.167,234.5 237.5,234.5C 237.973,235.906 238.973,236.573 240.5,236.5C 244.966,240.463 248.466,245.129 251,250.5C 251.5,257.158 251.666,263.825 251.5,270.5C 251.346,272.97 250.346,274.97 248.5,276.5C 245.062,278.769 242.062,281.602 239.5,285C 232.6,288.397 225.267,289.397 217.5,288C 211.214,285.395 205.714,281.562 201,276.5C 200,274.167 199,271.833 198,269.5C 195.544,258.507 197.711,248.84 204.5,240.5C 205.552,240.649 206.552,240.483 207.5,240C 209.833,238.333 212.167,236.667 214.5,235C 220.825,234.5 227.158,234.334 233.5,234.5 Z"/></g>
<g><path style="opacity:1" fill="#ed988b" d="M 237.5,234.5 C 236.167,234.5 234.833,234.5 233.5,234.5C 231.152,233.048 228.486,232.382 225.5,232.5C 222.483,232.768 219.483,233.102 216.5,233.5C 216.414,232.504 216.748,231.671 217.5,231C 224.844,229.481 231.511,230.648 237.5,234.5 Z"/></g>
<g><path style="opacity:1" fill="#f8d3cd" d="M 421.5,341.5 C 421.5,351.5 421.5,361.5 421.5,371.5C 414.167,371.5 406.833,371.5 399.5,371.5C 400.144,359.784 399.478,348.451 397.5,337.5C 325.167,337.5 252.833,337.5 180.5,337.5C 180.5,348.833 180.5,360.167 180.5,371.5C 180.167,371.5 179.833,371.5 179.5,371.5C 179.5,371.167 179.5,370.833 179.5,370.5C 179.5,358.833 179.5,347.167 179.5,335.5C 252.834,335.333 326.167,335.5 399.5,336C 400.488,347.419 400.821,358.919 400.5,370.5C 407.167,370.5 413.833,370.5 420.5,370.5C 420.173,360.652 420.506,350.986 421.5,341.5 Z"/></g>
<g><path style="opacity:1" fill="#e77b69" d="M 419.5,240.5 C 420.265,241.66 421.265,242.66 422.5,243.5C 423.977,253.604 424.644,263.77 424.5,274C 423.999,306.667 423.332,339.167 422.5,371.5C 422.667,330.499 422.5,289.499 422,248.5C 420.293,246.091 419.46,243.425 419.5,240.5 Z"/></g>
<g><path style="opacity:1" fill="#e5725f" d="M 397.5,337.5 C 397.5,348.833 397.5,360.167 397.5,371.5C 395.523,360.884 394.856,349.884 395.5,338.5C 324.167,338.5 252.833,338.5 181.5,338.5C 181.5,349.5 181.5,360.5 181.5,371.5C 181.167,371.5 180.833,371.5 180.5,371.5C 180.5,360.167 180.5,348.833 180.5,337.5C 252.833,337.5 325.167,337.5 397.5,337.5 Z"/></g>
<g><path style="opacity:1" fill="#f3bdb5" d="M 397.5,337.5 C 399.478,348.451 400.144,359.784 399.5,371.5C 406.833,371.5 414.167,371.5 421.5,371.5C 413.599,372.813 405.599,372.813 397.5,371.5C 397.5,360.167 397.5,348.833 397.5,337.5 Z"/></g>
<g><path style="opacity:1" fill="#e98372" d="M 156.5,371.5 C 164.265,372.812 171.932,372.812 179.5,371.5C 179.833,371.5 180.167,371.5 180.5,371.5C 180.586,372.496 180.252,373.329 179.5,374C 171.841,374.5 164.174,374.666 156.5,374.5C 156.5,373.5 156.5,372.5 156.5,371.5 Z"/></g>
<g><path style="opacity:1" fill="#e88171" d="M 397.5,371.5 C 405.599,372.813 413.599,372.813 421.5,371.5C 421.833,371.5 422.167,371.5 422.5,371.5C 422.586,372.496 422.252,373.329 421.5,374C 413.833,374.667 406.167,374.667 398.5,374C 397.748,373.329 397.414,372.496 397.5,371.5 Z"/></g>
</svg>
