<?xml version="1.0" encoding="UTF-8"?>
<!DOCTYPE svg PUBLIC "-//W3C//DTD SVG 1.1//EN" "http://www.w3.org/Graphics/SVG/1.1/DTD/svg11.dtd">
<svg xmlns="http://www.w3.org/2000/svg" version="1.1" width="618px" height="604px" style="shape-rendering:geometricPrecision; text-rendering:geometricPrecision; image-rendering:optimizeQuality; fill-rule:evenodd; clip-rule:evenodd" xmlns:xlink="http://www.w3.org/1999/xlink">
<g><path style="opacity:0.128" fill="#000000" d="M 283.5,4.5 C 361.398,-3.24083 430.398,17.2592 490.5,66C 502.291,78.4914 514.457,90.6581 527,102.5C 574.301,162.845 593.634,231.845 585,309.5C 575.874,366.153 552.208,415.486 514,457.5C 488.844,486.994 461.844,514.994 433,541.5C 432.667,541.167 432.333,540.833 432,540.5C 427.791,545.342 423.291,549.842 418.5,554C 416.919,554.707 415.419,555.54 414,556.5C 413.667,556.167 413.333,555.833 413,555.5C 412.727,557.329 411.893,558.829 410.5,560C 405.752,562.579 401.419,565.745 397.5,569.5C 396.227,569.254 395.06,569.254 394,569.5C 392.049,573.611 389.049,575.611 385,575.5C 382.037,578.911 378.537,581.744 374.5,584C 373.216,584.684 372.049,584.517 371,583.5C 367.839,586.844 364.005,589.344 359.5,591C 358.216,591.684 357.049,591.517 356,590.5C 349.713,594.431 342.88,597.098 335.5,598.5C 323.66,597.177 311.827,597.177 300,598.5C 291.027,595.842 282.194,593.008 273.5,590C 269.916,587.959 266.416,585.792 263,583.5C 262.667,583.833 262.333,584.167 262,584.5C 257.667,581.5 253.333,578.5 249,575.5C 248.667,575.833 248.333,576.167 248,576.5C 245.643,573.909 242.809,572.242 239.5,571.5C 239.649,570.448 239.483,569.448 239,568.5C 237.927,569.28 236.76,569.113 235.5,568C 225.807,559.978 215.807,552.312 205.5,545C 204.12,543.075 202.62,541.241 201,539.5C 200.667,539.833 200.333,540.167 200,540.5C 179.667,520.167 159.333,499.833 139,479.5C 118.969,457.08 100.635,433.414 84,408.5C 48.6533,345.396 38.9866,278.396 55,207.5C 64.9075,171.039 80.9075,137.706 103,107.5C 117.473,92.3604 132.306,77.527 147.5,63C 161.286,52.6006 175.619,42.934 190.5,34C 206.853,26.5491 223.519,19.8824 240.5,14C 254.856,10.3914 269.189,7.22469 283.5,4.5 Z"/></g>
<g><path style="opacity:0.999" fill="#fdfdfc" d="M 547.5,219.5 C 548.816,242.834 548.816,266.167 547.5,289.5C 541.743,326.994 528.243,361.327 507,392.5C 469.523,442.644 426.023,486.81 376.5,525C 362.517,534.826 347.517,542.826 331.5,549C 328.232,550.15 324.899,550.984 321.5,551.5C 312.151,551.517 302.818,551.183 293.5,550.5C 284.651,548.048 275.984,544.881 267.5,541C 241.825,525.337 217.825,507.337 195.5,487C 165.742,458.922 138.576,428.756 114,396.5C 80.8702,350.353 65.5369,298.687 68,241.5C 71.4743,186.934 90.641,138.934 125.5,97.5C 134.167,88.1667 143.167,79.1667 152.5,70.5C 159.054,65.7299 165.387,60.7299 171.5,55.5C 172.167,55.5 172.5,55.1667 172.5,54.5C 173.492,54.6716 174.158,54.3382 174.5,53.5C 175.167,53.5 175.5,53.1667 175.5,52.5C 177.434,51.8897 179.101,50.8897 180.5,49.5C 190.041,43.8971 199.708,38.5638 209.5,33.5C 216.46,31.346 223.126,28.6793 229.5,25.5C 236.711,23.8695 243.711,21.8695 250.5,19.5C 351.253,-0.864769 434.419,28.1352 500,106.5C 525.68,139.879 541.513,177.545 547.5,219.5 Z"/></g>
<g><path style="opacity:1" fill="#ed9a8d" d="M 319.5,53.5 C 308.482,53.3808 297.482,53.7141 286.5,54.5C 292.762,52.9805 299.262,52.3138 306,52.5C 310.68,52.5009 315.18,52.8342 319.5,53.5 Z"/></g>
<g><path style="opacity:1" fill="#e15640" d="M 319.5,53.5 C 330.615,53.9311 341.615,55.2645 352.5,57.5C 354.599,58.6118 356.933,59.2785 359.5,59.5C 420.488,76.6536 464.988,113.654 493,170.5C 521.824,240.896 515.49,307.896 474,371.5C 437.171,420.84 388.004,448.84 326.5,455.5C 312.151,455.656 297.817,455.323 283.5,454.5C 279.821,454.276 276.154,453.942 272.5,453.5C 269.781,452.087 266.781,451.42 263.5,451.5C 192.426,432.602 143.926,388.602 118,319.5C 96.5611,249.453 107.894,185.453 152,127.5C 181.076,92.7123 217.576,69.7123 261.5,58.5C 266.12,58.2598 270.453,57.2598 274.5,55.5C 278.466,54.8379 282.466,54.5045 286.5,54.5C 297.482,53.7141 308.482,53.3808 319.5,53.5 Z"/></g>
<g><path style="opacity:1" fill="#ee998a" d="M 274.5,55.5 C 270.453,57.2598 266.12,58.2598 261.5,58.5C 265.547,56.7402 269.88,55.7402 274.5,55.5 Z"/></g>
<g><path style="opacity:1" fill="#f2b3a8" d="M 352.5,57.5 C 355.228,57.1706 357.562,57.8372 359.5,59.5C 356.933,59.2785 354.599,58.6118 352.5,57.5 Z"/></g>
<g><path style="opacity:1" fill="#fefdfd" d="M 445.5,223.5 C 436.167,223.5 426.833,223.5 417.5,223.5C 417.168,258.337 417.502,293.004 418.5,327.5C 426.984,328.493 435.651,328.826 444.5,328.5C 444.5,335.5 444.5,342.5 444.5,349.5C 353.833,349.5 263.167,349.5 172.5,349.5C 172.5,342.5 172.5,335.5 172.5,328.5C 181.349,328.826 190.016,328.493 198.5,327.5C 199.498,293.004 199.832,258.337 199.5,223.5C 190.167,223.5 180.833,223.5 171.5,223.5C 171.169,215.472 171.502,207.472 172.5,199.5C 217.833,172.833 263.167,146.167 308.5,119.5C 353.573,146.565 398.906,173.232 444.5,199.5C 445.498,207.472 445.831,215.472 445.5,223.5 Z"/></g>
<g><path style="opacity:1" fill="#e56e5b" d="M 226.5,200.5 C 281.167,200.5 335.833,200.5 390.5,200.5C 390.5,242.833 390.5,285.167 390.5,327.5C 335.833,327.5 281.167,327.5 226.5,327.5C 226.5,285.167 226.5,242.833 226.5,200.5 Z"/></g>
<g><path style="opacity:1" fill="#e15640" d="M 227.5,201.5 C 281.5,201.5 335.5,201.5 389.5,201.5C 389.5,243.167 389.5,284.833 389.5,326.5C 335.5,326.5 281.5,326.5 227.5,326.5C 227.5,284.833 227.5,243.167 227.5,201.5 Z"/></g>
<g><path style="opacity:1" fill="#e97b68" d="M 171.5,223.5 C 180.833,223.5 190.167,223.5 199.5,223.5C 199.832,258.337 199.498,293.004 198.5,327.5C 189.5,327.5 180.5,327.5 171.5,327.5C 179.984,326.507 188.651,326.174 197.5,326.5C 197.5,292.5 197.5,258.5 197.5,224.5C 188.651,224.826 179.984,224.493 171.5,223.5 Z"/></g>
<g><path style="opacity:1" fill="#f4c0b8" d="M 254.5,223.5 C 254.5,250.167 254.5,276.833 254.5,303.5C 263.167,303.5 271.833,303.5 280.5,303.5C 280.168,288.088 280.501,273.421 281.5,259.5C 281.5,274.5 281.5,289.5 281.5,304.5C 272.167,304.5 262.833,304.5 253.5,304.5C 253.169,277.328 253.502,250.328 254.5,223.5 Z"/></g>
<g><path style="opacity:1" fill="#fefdfd" d="M 254.5,223.5 C 263.506,223.334 272.506,223.5 281.5,224C 290.14,235.441 299.14,246.608 308.5,257.5C 317.86,246.608 326.86,235.441 335.5,224C 344.494,223.5 353.494,223.334 362.5,223.5C 362.5,250.167 362.5,276.833 362.5,303.5C 353.833,303.5 345.167,303.5 336.5,303.5C 336.833,288.485 336.499,273.485 335.5,258.5C 334.893,258.624 334.56,258.957 334.5,259.5C 326.083,270.651 317.416,281.651 308.5,292.5C 299.72,281.246 290.72,270.246 281.5,259.5C 280.501,273.421 280.168,288.088 280.5,303.5C 271.833,303.5 263.167,303.5 254.5,303.5C 254.5,276.833 254.5,250.167 254.5,223.5 Z"/></g>
<g><path style="opacity:1" fill="#f4c0b8" d="M 362.5,223.5 C 363.498,250.328 363.831,277.328 363.5,304.5C 354.167,304.5 344.833,304.5 335.5,304.5C 335.829,289.324 335.496,274.324 334.5,259.5C 334.56,258.957 334.893,258.624 335.5,258.5C 336.499,273.485 336.833,288.485 336.5,303.5C 345.167,303.5 353.833,303.5 362.5,303.5C 362.5,276.833 362.5,250.167 362.5,223.5 Z"/></g>
<g><path style="opacity:1" fill="#e97b68" d="M 445.5,223.5 C 437.016,224.493 428.349,224.826 419.5,224.5C 419.5,258.5 419.5,292.5 419.5,326.5C 428.349,326.174 437.016,326.507 445.5,327.5C 436.5,327.5 427.5,327.5 418.5,327.5C 417.502,293.004 417.168,258.337 417.5,223.5C 426.833,223.5 436.167,223.5 445.5,223.5 Z"/></g>
<g><path style="opacity:0.874" fill="#bfbfbf" d="M 547.5,219.5 C 549.862,231.071 550.862,242.904 550.5,255C 550.88,266.768 549.88,278.268 547.5,289.5C 548.816,266.167 548.816,242.834 547.5,219.5 Z"/></g>
<g><path style="opacity:1" fill="#fbebe8" d="M 171.5,327.5 C 180.5,327.5 189.5,327.5 198.5,327.5C 190.016,328.493 181.349,328.826 172.5,328.5C 172.5,335.5 172.5,342.5 172.5,349.5C 263.167,349.5 353.833,349.5 444.5,349.5C 444.5,342.5 444.5,335.5 444.5,328.5C 435.651,328.826 426.984,328.493 418.5,327.5C 427.5,327.5 436.5,327.5 445.5,327.5C 445.5,335.167 445.5,342.833 445.5,350.5C 354.167,350.5 262.833,350.5 171.5,350.5C 171.5,342.833 171.5,335.167 171.5,327.5 Z"/></g>
<g><path style="opacity:1" fill="#f2b2a7" d="M 263.5,451.5 C 266.781,451.42 269.781,452.087 272.5,453.5C 269.219,453.58 266.219,452.913 263.5,451.5 Z"/></g>
<g><path style="opacity:1" fill="#e98272" d="M 283.5,454.5 C 297.817,455.323 312.151,455.656 326.5,455.5C 320.843,456.166 315.01,456.499 309,456.5C 300.28,456.682 291.78,456.016 283.5,454.5 Z"/></g>
<g><path style="opacity:0.793" fill="#a8a8a8" d="M 293.5,550.5 C 302.818,551.183 312.151,551.517 321.5,551.5C 312.07,554.31 302.737,553.977 293.5,550.5 Z"/></g>
</svg>
