<?xml version="1.0" encoding="UTF-8"?>
<!DOCTYPE svg PUBLIC "-//W3C//DTD SVG 1.1//EN" "http://www.w3.org/Graphics/SVG/1.1/DTD/svg11.dtd">
<svg xmlns="http://www.w3.org/2000/svg" version="1.1" width="579px" height="643px" style="shape-rendering:geometricPrecision; text-rendering:geometricPrecision; image-rendering:optimizeQuality; fill-rule:evenodd; clip-rule:evenodd" xmlns:xlink="http://www.w3.org/1999/xlink">
<g><path style="opacity:0.127" fill="#010101" d="M 264.5,27.5 C 337.377,19.9591 403.044,37.6258 461.5,80.5C 476.429,93.9268 490.929,107.927 505,122.5C 564.688,197.335 581.688,281.335 556,374.5C 553.048,382.07 550.381,389.737 548,397.5C 535.771,423.859 520.771,448.525 503,471.5C 473.658,505.18 442.491,537.347 409.5,568C 389.11,584.376 367.444,599.043 344.5,612C 337.818,614.117 331.151,616.45 324.5,619C 299.365,624.25 275.032,621.917 251.5,612C 241.974,607.073 232.641,601.906 223.5,596.5C 208.05,584.927 192.717,573.094 177.5,561C 156.667,540.167 135.833,519.333 115,498.5C 93.9096,475 75.2429,449.667 59,422.5C 26.7301,360.246 19.0635,294.913 36,226.5C 46.551,189.471 63.551,155.805 87,125.5C 100.5,113.333 113.333,100.5 125.5,87C 166.137,54.2739 212.471,34.4405 264.5,27.5 Z"/></g>
<g><path style="opacity:0.999" fill="#fdfdfd" d="M 51.5,315.5 C 51.3831,307.147 50.8831,298.813 50,290.5C 49.6174,291.056 49.1174,291.389 48.5,291.5C 48.5,282.5 48.5,273.5 48.5,264.5C 50.4563,258.588 51.1229,252.255 50.5,245.5C 56.6971,200.382 73.8638,160.049 102,124.5C 112.208,113.964 122.375,103.63 132.5,93.5C 135.873,90.8225 139.206,88.1558 142.5,85.5C 150.19,80.1341 157.857,74.8007 165.5,69.5C 231.468,32.3964 300.468,25.8964 372.5,50C 446.47,79.631 495.97,132.131 521,207.5C 542.782,289.344 528.115,363.677 477,430.5C 449.911,462.924 420.744,493.424 389.5,522C 368.671,540.825 345.671,556.491 320.5,569C 303.958,576.024 286.958,577.357 269.5,573C 253.001,567.085 237.668,559.085 223.5,549C 172.951,509.784 128.451,464.617 90,413.5C 75.0205,390.909 63.6872,366.576 56,340.5C 54.3362,332.182 52.8362,323.849 51.5,315.5 Z"/></g>
<g><path style="opacity:1" fill="#e15640" d="M 489.5,249.5 C 490.337,264.817 490.671,280.151 490.5,295.5C 483.222,360.576 452.556,411.409 398.5,448C 339.575,483.288 277.908,488.954 213.5,465C 141.113,432.261 99.6134,376.427 89,297.5C 83.6607,221.695 110.827,160.528 170.5,114C 228.258,74.7962 290.591,65.7962 357.5,87C 431.9,116.559 475.9,170.725 489.5,249.5 Z"/></g>
<g><path style="opacity:1" fill="#fefcfc" d="M 394.5,165.5 C 399.511,165.334 404.511,165.501 409.5,166C 410,166.5 410.5,167 411,167.5C 411.538,240.836 411.205,314.17 410,387.5C 408.226,393.105 404.393,395.771 398.5,395.5C 391.778,395.618 387.945,392.284 387,385.5C 386.737,343.813 385.737,302.147 384,260.5C 380.962,257.797 378.295,254.797 376,251.5C 372.726,232.639 371.726,213.639 373,194.5C 374.891,180.642 382.057,170.976 394.5,165.5 Z"/></g>
<g><path style="opacity:1" fill="#fefbfb" d="M 178.5,378.5 C 178.622,335.992 177.955,293.658 176.5,251.5C 174.204,249.599 172.371,247.266 171,244.5C 169.023,239.255 167.356,233.922 166,228.5C 165.333,210.833 165.333,193.167 166,175.5C 169.598,172.911 173.264,172.911 177,175.5C 177.176,189.408 177.676,203.242 178.5,217C 180.112,217.72 181.612,217.554 183,216.5C 183.333,202.833 183.667,189.167 184,175.5C 186.497,173.522 189.331,173.022 192.5,174C 193.667,174.5 194.5,175.333 195,176.5C 195.185,189.878 195.685,203.212 196.5,216.5C 198.353,217.76 200.186,217.76 202,216.5C 202.333,203.167 202.667,189.833 203,176.5C 206.39,172.968 210.057,172.634 214,175.5C 214.667,193.167 214.667,210.833 214,228.5C 212.56,237.041 209.227,244.708 204,251.5C 203.667,294.167 203.333,336.833 203,379.5C 198.494,387.444 191.994,389.611 183.5,386C 180.8,384.143 179.134,381.643 178.5,378.5 Z"/></g>
<g><path style="opacity:1" fill="#fefcfb" d="M 369.5,259.5 C 370.203,268.149 370.536,276.815 370.5,285.5C 363.984,323.85 341.651,347.017 303.5,355C 256.453,358.563 226.286,337.73 213,292.5C 207.541,249.577 224.374,219.077 263.5,201C 308.926,188.908 342.76,203.408 365,244.5C 367.091,249.341 368.591,254.341 369.5,259.5 Z"/></g>
<g><path style="opacity:1" fill="#e15842" d="M 349.5,259.5 C 349.41,262.152 350.076,264.485 351.5,266.5C 353.879,301.279 338.546,324.112 305.5,335C 265.165,340.25 240.332,323.083 231,283.5C 229.319,254.362 241.485,233.195 267.5,220C 295.354,210.835 319.187,217.002 339,238.5C 344.098,244.696 347.598,251.696 349.5,259.5 Z"/></g>
<g><path style="opacity:1" fill="#fefcfc" d="M 321.5,283.5 C 322.229,288.13 322.563,292.797 322.5,297.5C 315.724,321.892 300.057,330.725 275.5,324C 262.889,319.557 254.555,311.057 250.5,298.5C 249.873,293.859 249.54,289.193 249.5,284.5C 250.669,277.17 253.502,270.503 258,264.5C 267.265,253.9 277.765,244.733 289.5,237C 303.115,231.446 316.115,232.446 328.5,240C 334.329,247.142 334.829,254.642 330,262.5C 325.772,266.073 321.606,269.573 317.5,273C 319.263,276.356 320.596,279.856 321.5,283.5 Z"/></g>
<g><path style="opacity:0.826" fill="#c9c9c9" d="M 50.5,245.5 C 51.1229,252.255 50.4563,258.588 48.5,264.5C 48.3369,257.938 49.0035,251.605 50.5,245.5 Z"/></g>
<g><path style="opacity:1" fill="#f2b0a5" d="M 349.5,259.5 C 350.924,261.515 351.59,263.848 351.5,266.5C 350.076,264.485 349.41,262.152 349.5,259.5 Z"/></g>
<g><path style="opacity:1" fill="#f2b4aa" d="M 369.5,259.5 C 370.965,264.59 371.632,269.923 371.5,275.5C 371.498,279.018 371.165,282.351 370.5,285.5C 370.536,276.815 370.203,268.149 369.5,259.5 Z"/></g>
<g><path style="opacity:1" fill="#e15943" d="M 282.5,272.5 C 297.329,270.512 304.829,276.845 305,291.5C 301.455,302.527 293.955,306.694 282.5,304C 269.197,293.422 269.197,282.922 282.5,272.5 Z"/></g>
<g><path style="opacity:1" fill="#e98271" d="M 489.5,249.5 C 491.028,258.281 491.695,267.281 491.5,276.5C 491.5,283.009 491.166,289.342 490.5,295.5C 490.671,280.151 490.337,264.817 489.5,249.5 Z"/></g>
<g><path style="opacity:1" fill="#f1ada2" d="M 321.5,283.5 C 322.973,286.017 323.64,288.85 323.5,292C 323.494,294.033 323.161,295.866 322.5,297.5C 322.563,292.797 322.229,288.13 321.5,283.5 Z"/></g>
<g><path style="opacity:0.831" fill="#cacaca" d="M 51.5,315.5 C 49.532,307.757 48.532,299.757 48.5,291.5C 49.1174,291.389 49.6174,291.056 50,290.5C 50.8831,298.813 51.3831,307.147 51.5,315.5 Z"/></g>
<g><path style="opacity:1" fill="#e98575" d="M 249.5,284.5 C 249.54,289.193 249.873,293.859 250.5,298.5C 248.442,293.928 248.109,289.262 249.5,284.5 Z"/></g>
<g><path style="opacity:1" fill="#f3b5aa" d="M 176.5,251.5 C 177.955,293.658 178.622,335.992 178.5,378.5C 176.979,336.343 176.313,294.009 176.5,251.5 Z"/></g>
</svg>
